<svg width="34" height="28" viewBox="0 0 34 28" fill="none" xmlns="http://www.w3.org/2000/svg">
<path d="M30.3333 0.666748H3.66665C1.83331 0.666748 0.34998 2.16675 0.34998 4.00008L0.333313 24.0001C0.333313 25.8334 1.83331 27.3334 3.66665 27.3334H30.3333C32.1666 27.3334 33.6666 25.8334 33.6666 24.0001V4.00008C33.6666 2.16675 32.1666 0.666748 30.3333 0.666748ZM29.6666 7.75008L17.8833 15.1167C17.35 15.4501 16.65 15.4501 16.1166 15.1167L4.33331 7.75008C3.91665 7.48341 3.66665 7.03341 3.66665 6.55008C3.66665 5.43341 4.88331 4.76675 5.83331 5.35008L17 12.3334L28.1666 5.35008C29.1166 4.76675 30.3333 5.43341 30.3333 6.55008C30.3333 7.03341 30.0833 7.48341 29.6666 7.75008Z" fill="#0F9974"/>
</svg>
